<?xml version="1.0" encoding="utf-8"?>
<!-- Generator: Adobe Illustrator 22.1.0, SVG Export Plug-In . SVG Version: 6.00 Build 0)  -->
<svg version="1.1" id="Layer_1" xmlns="http://www.w3.org/2000/svg" xmlns:xlink="http://www.w3.org/1999/xlink" x="0px" y="0px"
	 viewBox="0 0 39 101" enable-background="new 0 0 39 101" xml:space="preserve">
<g>
	<path fill="#FFFFFF" d="M13.498,12.303l0.786,1.139c0,0,0.523,1.084,0,1.346c-0.523,0.262-2.092,1.291-2.092,1.291v1.135
		l0.034,2.817l1.128,0.772L7.535,27.34l-3.292,5.753l-1.204,8.107v49.819c0,0,1.801,5.1,4.496,5.1s5.177-0.785,5.963-4.054
		s0.306,4.41,5.232,4.054s5.969-3.007,6.188-4.054s0.789,4.49,5.188,4.066c0,0,5.623,1.557,5.623-8.381s0-51.78,0-51.78
		s-2.746-9.911-6.276-12.03c0,0-3.083-3.038-3.107-4.315l0.799-0.351l0.502-3.196c0,0-0.251-0.63-0.502-0.755
		c-0.251-0.125-1.192-0.376-1.192-0.376l-0.439-2.644l1.317-0.429l0.69-1.693l-0.314-5.519L15.82,4.382l-2.912,0.342l-0.878,1.809
		c0,0-0.063,2.079,0,2.33v2.634L13.498,12.303z"/>
	<g>
		<g>
			<path fill="#0071BD" d="M14.671,3.132c-1.79,0.023-3.247,1.449-3.309,3.238l-0.057,5.362c-0.007,0.602,0.477,1.096,1.079,1.103
				l1.064,0.012L13.437,13.9c-1.183,0.028-2.138,0.973-2.179,2.156l-0.024,2.129c-0.006,0.744,0.367,1.44,0.992,1.846
				c-0.439,0.705-0.992,1.331-1.635,1.855c-4.812,3.816-7.786,9.488-8.189,15.616L2.061,90.767c-0.032,2.854,1.808,5.392,4.53,6.25
				c2.721,0.858,5.684-0.166,7.295-2.521c0.234,0.358,0.501,0.692,0.799,0.999c1.359,1.382,3.266,2.084,5.197,1.913
				c1.931-0.171,3.685-1.197,4.78-2.796c0.233,0.358,0.5,0.694,0.799,1.001c1.149,1.165,2.694,1.856,4.328,1.934
				c1.719,0.072,3.392-0.562,4.63-1.758c0.029-0.027,0.058-0.055,0.086-0.082c1.299-1.272,2.042-3.006,2.069-4.823l0.058-5.386
				l0-0.002l0.28-47.621c-0.265-6.136-3.116-11.874-7.847-15.79c-0.633-0.538-1.171-1.176-1.595-1.89
				c0.637-0.388,1.028-1.078,1.032-1.824l0.023-2.129c0.011-1.194-0.938-2.175-2.132-2.203l0.011-1.053l1.065,0.012
				c0.602,0.007,1.096-0.476,1.102-1.079l0.058-5.362c0.01-0.868-0.326-1.704-0.933-2.324c-0.607-0.62-1.436-0.974-2.304-0.983
				L14.671,3.132z M34.463,84.381l-17.188-0.187c-1.205-0.014-2.17-1.001-2.158-2.206l0.209-41.074
				c0.016-1.204,1.002-2.169,2.206-2.158l17.189,0.186L34.463,84.381z M34.652,36.76l-17.098-0.186
				c-2.409-0.023-4.381,1.907-4.411,4.316l-0.21,41.074c-0.013,1.157,0.435,2.272,1.245,3.1c0.809,0.827,1.914,1.299,3.072,1.311
				l17.188,0.187l-0.047,4.297c0,1.271-0.533,2.484-1.471,3.343c-0.807,0.786-1.902,1.207-3.027,1.165
				c-2.316-0.101-4.131-2.025-4.098-4.343c0.011-0.394-0.192-0.764-0.53-0.967c-0.338-0.203-0.759-0.207-1.101-0.012
				c-0.343,0.195-0.553,0.56-0.551,0.955c-0.003,1.545-0.834,2.968-2.178,3.731c-1.344,0.762-2.992,0.744-4.319-0.047
				c-1.327-0.79-2.128-2.232-2.098-3.776c0.007-0.603-0.476-1.096-1.079-1.103c-0.602-0.007-1.096,0.476-1.103,1.079
				c-0.014,1.537-0.848,2.951-2.187,3.706c-1.339,0.755-2.979,0.737-4.302-0.047c-1.323-0.784-2.126-2.215-2.106-3.752l0.342-53.264
				c0.427-5.466,3.095-10.51,7.371-13.94c1.071-0.867,1.944-1.954,2.562-3.185l10.655,0.116c0.591,1.244,1.441,2.349,2.491,3.24
				C31.565,27.043,34.064,31.693,34.652,36.76L34.652,36.76z M26.321,18.348l-0.424-0.005l-12.056-0.131l-0.424-0.005l0.023-2.129
				l12.905,0.14L26.321,18.348z M24.213,14.014l-8.595-0.094l0.012-1.051l8.595,0.093L24.213,14.014z M26.45,6.534l-0.046,4.271
				l-1.063-0.012l-0.002,0l-5.374-0.058l0.023-2.142c-0.003-0.596-0.483-1.08-1.079-1.087c-0.596-0.006-1.087,0.467-1.103,1.063
				l-0.023,2.142l-1.051-0.012l0.023-2.142c-0.002-0.596-0.483-1.08-1.079-1.086c-0.596-0.006-1.086,0.467-1.102,1.062l-0.024,2.142
				l-1.052-0.012l0.047-4.271c0.019-0.597,0.506-1.072,1.102-1.079l10.725,0.117c0.288,0.003,0.565,0.121,0.767,0.328
				C26.341,5.966,26.453,6.244,26.45,6.534L26.45,6.534z M26.45,6.534"/>
			<path fill="#0071BD" d="M6.713,37.547l-0.21,41.155c-0.01,0.393,0.192,0.762,0.53,0.964c0.338,0.203,0.759,0.207,1.1,0.012
				c0.342-0.195,0.553-0.559,0.551-0.953l0.21-41.155c-0.003-0.596-0.484-1.08-1.08-1.086C7.22,36.479,6.729,36.951,6.713,37.547
				L6.713,37.547z M6.713,37.547"/>
			<path fill="#0071BD" d="M6.456,83.012l-0.023,2.156c-0.01,0.393,0.193,0.762,0.53,0.965c0.338,0.202,0.759,0.206,1.101,0.011
				c0.342-0.195,0.552-0.559,0.55-0.952l0.023-2.156c0.011-0.394-0.193-0.762-0.53-0.964c-0.338-0.202-0.759-0.206-1.101-0.012
				C6.664,82.254,6.454,82.618,6.456,83.012L6.456,83.012z M6.456,83.012"/>
		</g>
	</g>
</g>
</svg>
