<?xml version="1.0" encoding="utf-8"?>
<!-- Generator: Adobe Illustrator 22.1.0, SVG Export Plug-In . SVG Version: 6.00 Build 0)  -->
<svg version="1.1" id="Layer_1" xmlns="http://www.w3.org/2000/svg" xmlns:xlink="http://www.w3.org/1999/xlink" x="0px" y="0px"
	 viewBox="0 0 132 81" enable-background="new 0 0 132 81" xml:space="preserve">
<g>
	<g>
		<path d="M67.618,47.628l3-7.212c0.698-1.689,1.981-3.071,3.606-3.898c1.632-0.834,2.907-2.209,3.613-3.898l2.252-5.423
			c0.207-0.499,0.777-0.734,1.276-0.527l2.266,0.941c0.499,0.207,0.734,0.784,0.527,1.276l-2.252,5.423
			c-0.698,1.689-0.777,3.57-0.214,5.309c0.242,0.77,0.371,1.568,0.371,2.359c0,1.005-0.2,2.009-0.591,2.95l-2.993,7.211L78.1,52.296
			c-2.473-3.214-6.47-4.853-10.44-4.361L67.618,47.628z"/>
	</g>
	<g>
		<path d="M55.967,68.536c-0.641,0.014-1.268-0.171-1.789-0.534l-0.057-0.036c-1.112-0.777-1.582-2.195-1.154-3.478l0.363-1.069
			c0.299-0.884,0.976-1.582,1.853-1.896l2.109-0.763c1.304-0.47,2.765,0,3.549,1.147l0.613,0.891
			c0.378,0.556,0.926,0.969,1.568,1.183l1.632,0.527c1.532,0.506,2.409,2.116,1.995,3.677l-0.306,1.169
			c-0.192,0.727-0.648,1.361-1.283,1.774l-0.784,0.513c-1.575,1.019-3.684,0.399-4.447-1.318c-0.492-1.097-1.575-1.803-2.772-1.803
			c-0.021,0-0.05,0-0.071,0L55.967,68.536z"/>
	</g>
	<g>
		<path d="M31.617,63.555c1.012,1.062-0.413,4.055-3.178,6.684c-2.758,2.629-5.815,3.905-6.827,2.843l-4.995-5.252
			c1.119,0.413,4.076-1.083,6.399-3.292c2.765-2.629,4.183-5.622,3.171-6.684L31.617,63.555z"/>
	</g>
	<g>
		<path d="M17.493,61.838c0.727,2.708,0.549,4.953-0.549,5.394c-0.221,0.086-0.463,0.1-0.72,0.036
			c-1.347-0.299-3.128-2.48-4.325-5.451c-1.425-3.535-1.482-6.848-0.128-7.397c1.361-0.549,3.62,1.874,5.045,5.416
			C17.094,60.519,17.315,61.189,17.493,61.838z"/>
	</g>
	<g>
		<path fill="#FFFFFF" d="M66.816,7.274c0.338-0.023,8.257-0.498,13.895,6.191c0.335,0.397,0.816,0.605,1.302,0.605
			c0.337,0,0.678-0.1,0.973-0.306c7.174-5.007,14.703-2.513,15.023-2.403c0.885,0.308,1.853-0.159,2.163-1.045
			c0.311-0.887-0.157-1.857-1.043-2.167c-0.365-0.127-8.59-2.912-16.826,2.008c-6.689-6.879-15.357-6.304-15.742-6.275
			c-0.934,0.072-1.632,0.886-1.563,1.821C65.067,6.638,65.892,7.338,66.816,7.274z"/>
		<path fill="#FFFFFF" d="M121.309,68.253c-1.76-5.796-7.126-9.91-13.26-10.03c0.037-0.427,0.056-0.852,0.056-1.274
			c0-8.38-6.778-15.205-15.138-15.275c-0.817-4.41-4.16-7.99-8.497-9.106l1.254-3.021c0.277-0.659,0.279-1.387,0.007-2.05
			c-0.273-0.665-0.789-1.182-1.45-1.456l-2.267-0.941c-1.364-0.563-2.933,0.086-3.497,1.447l-2.251,5.419
			c-0.033,0.079-0.082,0.148-0.118,0.225c-2.602-0.846-5.302-1.277-8.046-1.277c-7.052,0-13.823,2.883-18.716,7.939
			c-0.453-0.044-0.874-0.065-1.287-0.065c-3.556,0-6.96,1.266-9.655,3.578c-4.018,0.348-7.458,2.978-8.869,6.709
			c-5.692,0.247-10.133,4.396-10.55,9.779c-0.197,0.153-0.398,0.298-0.59,0.458c-0.014-0.036-0.027-0.075-0.041-0.111
			c-0.766-1.902-1.788-3.595-2.88-4.767c-1.979-2.124-3.595-1.909-4.382-1.591c-2.782,1.127-2.411,5.638-0.811,9.608
			c0.379,0.942,0.866,1.924,1.431,2.835c-4.569,1.406-8.131,6.024-8.131,11.18c0,0.939,0.762,1.701,1.701,1.701
			s1.701-0.762,1.701-1.701c0-4.222,3.477-8.064,7.355-8.212c0.184,0.127,0.371,0.245,0.561,0.342
			c0.172,0.233,0.377,0.439,0.625,0.596l4.815,5.062l0.001,0.001l0,0c0.379,0.398,1.092,0.9,2.277,0.9
			c0.643,0,1.425-0.148,2.367-0.541c1.477-0.615,3.106-1.732,4.586-3.143c1.485-1.412,2.682-2.986,3.37-4.432
			c1.248-2.623,0.453-4.044-0.131-4.658l-5.43-5.701c-0.084-0.088-0.176-0.165-0.273-0.231c-0.904-0.719-2.213-0.754-3.911-0.097
			c1.268-2.327,3.839-3.888,6.878-3.888c0.146,0,0.289,0.011,0.431,0.021l0.177,0.012c0.826,0.053,1.575-0.504,1.762-1.314
			c0.726-3.132,3.478-5.374,6.694-5.453c0.417-0.01,0.815-0.173,1.119-0.457c2.132-1.989,4.904-3.084,7.805-3.084
			c0.505,0,1.042,0.044,1.692,0.139c0.566,0.082,1.128-0.122,1.508-0.543c4.288-4.747,10.412-7.47,16.802-7.47
			c1.823,0,3.62,0.239,5.378,0.67c-0.01,0.005-0.018,0.013-0.028,0.018c-1.99,1.013-3.555,2.705-4.405,4.761l-2.784,6.692
			c-0.944,0.206-1.865,0.51-2.748,0.921c-0.851,0.396-1.221,1.408-0.825,2.26c0.396,0.853,1.405,1.222,2.26,0.825
			c0.927-0.431,1.909-0.713,2.919-0.838c3.4-0.42,6.798,1.002,8.876,3.703c0.453,0.594,0.817,1.195,1.115,1.836
			c0.287,0.621,0.902,0.987,1.544,0.987c0.239,0,0.483-0.051,0.714-0.158c0.852-0.395,1.223-1.406,0.828-2.258
			c-0.212-0.457-0.459-0.906-0.73-1.346l2.823-6.805c0.479-1.15,0.723-2.363,0.723-3.605c0-0.958-0.151-1.924-0.453-2.882
			c-0.35-1.081-0.366-2.236-0.084-3.33c3.65,0.741,6.404,3.94,6.529,7.737c0.016,0.469,0.224,0.91,0.576,1.22
			c0.351,0.31,0.811,0.461,1.283,0.417c0.463-0.043,0.852-0.064,1.224-0.064c6.543,0,11.867,5.326,11.867,11.874
			c0,0.888-0.11,1.802-0.326,2.716c-0.129,0.546,0.019,1.12,0.396,1.535c0.377,0.415,0.936,0.613,1.491,0.541
			c0.593-0.082,1.071-0.12,1.508-0.12c5.071,0,9.496,3.598,10.519,8.555c0.162,0.782,0.845,1.346,1.644,1.357
			c2.85,0.038,5.169,2.382,5.169,5.225c0,0.939,0.762,1.701,1.701,1.701s1.701-0.762,1.701-1.701
			C128.507,72.516,125.382,68.946,121.309,68.253z M19.622,65.051c0.021-0.648-0.029-1.359-0.158-2.13
			c0.063-0.046,0.128-0.089,0.186-0.145c1.914-1.826,3.917-2.951,5.027-3.343c-0.316,0.858-1.193,2.312-2.833,3.873
			C21.089,64.023,20.324,64.6,19.622,65.051z M12.521,56.27c0.671,0.528,1.802,1.925,2.719,4.204c0.234,0.578,0.44,1.186,0.612,1.81
			c0.392,1.464,0.418,2.518,0.341,3.092c-0.67-0.526-1.8-1.921-2.717-4.196C12.561,58.907,12.405,57.117,12.521,56.27z
			 M27.265,69.008c-2.082,1.985-3.931,2.746-4.564,2.751l-2.807-2.951c1.689-0.824,3.328-2.119,4.294-3.037
			c1.192-1.133,2.443-2.634,3.228-4.16l2.826,2.966C30.207,65.207,29.357,67.019,27.265,69.008z M79.899,44.275l-2.146,5.173
			c-2.138-1.89-4.85-3.04-7.693-3.26l2.13-5.121c0.542-1.31,1.538-2.387,2.807-3.033c1.985-1.013,3.551-2.703,4.41-4.76l1.974-4.754
			l0.927,0.385l-1.975,4.755c-0.853,2.064-0.946,4.366-0.264,6.47c0.194,0.614,0.292,1.236,0.292,1.847
			C80.361,42.767,80.205,43.54,79.899,44.275z"/>
		<path fill="#FFFFFF" d="M53.81,55.152c0.231-0.91-0.32-1.836-1.23-2.067c-2.829-0.718-5.77-0.293-8.281,1.2
			c-2.512,1.493-4.292,3.875-5.01,6.707c-0.231,0.911,0.32,1.836,1.231,2.067c0.14,0.036,0.281,0.053,0.419,0.053
			c0.759,0,1.452-0.513,1.647-1.283c0.495-1.95,1.72-3.591,3.45-4.62c1.731-1.029,3.755-1.323,5.706-0.827
			C52.655,56.613,53.579,56.062,53.81,55.152z"/>
		<path fill="#FFFFFF" d="M91.027,65.987c-2.567-1.396-5.527-1.707-8.327-0.878c-2.801,0.83-5.11,2.7-6.501,5.267
			c-0.449,0.826-0.141,1.858,0.684,2.306c0.257,0.139,0.535,0.206,0.809,0.206c0.604,0,1.189-0.323,1.497-0.891
			c0.958-1.767,2.548-3.056,4.477-3.627c1.932-0.571,3.968-0.356,5.737,0.605c0.826,0.449,1.858,0.143,2.306-0.682
			C92.158,67.469,91.852,66.436,91.027,65.987z"/>
		<path fill="#FFFFFF" d="M65.175,62.891l-1.616-0.522c-0.289-0.096-0.531-0.278-0.704-0.534l-0.61-0.886
			c-1.222-1.787-3.498-2.522-5.532-1.787l-2.107,0.762c-1.367,0.49-2.42,1.566-2.887,2.949l-0.366,1.078
			c-0.662,1.985,0.076,4.209,1.792,5.41c0.018,0.013,0.062,0.04,0.097,0.062c0.81,0.555,1.761,0.834,2.747,0.814l1.066-0.014
			c0.524,0,1.003,0.313,1.218,0.792c0.565,1.271,1.651,2.228,2.982,2.624c0.445,0.133,0.901,0.198,1.356,0.198
			c0.909,0,1.81-0.261,2.597-0.77l0.779-0.511c0.987-0.642,1.697-1.624,2-2.768l0.306-1.165
			C68.935,66.198,67.57,63.682,65.175,62.891z M65.004,67.755l-0.306,1.164c-0.086,0.324-0.287,0.602-0.571,0.787l-0.774,0.508
			c-0.459,0.296-0.901,0.23-1.125,0.163c-0.221-0.066-0.625-0.25-0.846-0.749c-0.765-1.706-2.462-2.808-4.325-2.808
			c-0.007,0-0.087,0-0.095,0l-1.033,0.015c-0.278,0.014-0.553-0.072-0.776-0.228c-0.016-0.011-0.052-0.034-0.085-0.055
			c-0.472-0.348-0.672-0.97-0.49-1.517l0.364-1.071c0.134-0.396,0.431-0.702,0.815-0.839c0.002-0.001,0.003-0.001,0.005-0.002
			l2.108-0.762c0.577-0.21,1.221,0.001,1.571,0.511l0.607,0.882c0.591,0.87,1.434,1.506,2.452,1.846l1.621,0.523
			C64.798,66.349,65.186,67.064,65.004,67.755z"/>
		<path fill="#FFFFFF" d="M18.97,25.222c0.064-0.034,6.434-3.27,13.35,0.21c0.245,0.123,0.506,0.182,0.764,0.182
			c0.571,0,1.125-0.288,1.445-0.802c4.051-6.507,10.979-7.103,11.288-7.126c0.934-0.066,1.64-0.876,1.577-1.811
			c-0.063-0.936-0.862-1.642-1.811-1.583c-0.343,0.023-8.037,0.622-13.1,7.48c-7.9-3.223-14.78,0.274-15.085,0.433
			c-0.833,0.434-1.157,1.461-0.723,2.294C17.11,25.332,18.136,25.657,18.97,25.222z"/>
		<path fill="#FFFFFF" d="M104.934,26.422c0.17-0.015,4.188-0.228,7.032,3.147c0.335,0.397,0.816,0.605,1.301,0.605
			c0.337,0,0.678-0.1,0.973-0.307c3.605-2.519,7.423-1.284,7.6-1.225c0.881,0.305,1.85-0.163,2.159-1.047
			c0.31-0.887-0.158-1.857-1.044-2.167c-0.208-0.072-4.74-1.606-9.405,0.879c-3.87-3.608-8.649-3.297-8.865-3.278
			c-0.933,0.071-1.629,0.881-1.563,1.814C103.189,25.777,104.007,26.482,104.934,26.422z"/>
	</g>
</g>
</svg>
