<?xml version="1.0" encoding="utf-8"?>
<!-- Generator: Adobe Illustrator 22.1.0, SVG Export Plug-In . SVG Version: 6.00 Build 0)  -->
<svg version="1.1" id="Layer_1" xmlns="http://www.w3.org/2000/svg" xmlns:xlink="http://www.w3.org/1999/xlink" x="0px" y="0px"
	 viewBox="0 0 31 36" enable-background="new 0 0 31 36" xml:space="preserve">
<g>
	<path fill="none" stroke="#008DEC" stroke-width="2" stroke-linecap="round" stroke-linejoin="round" stroke-miterlimit="10" d="
		M25.845,22.781c-1.441,5.223-5.527,10.443-10.342,10.443c-4.834,0-8.933-5.262-10.359-10.506"/>
	<path fill="none" stroke="#008DEC" stroke-width="2" stroke-linecap="round" stroke-linejoin="round" stroke-miterlimit="10" d="
		M15.178,3.493c10.296,0,14.676,3.84,11.394,18.848c-0.13,0.596-0.976,0.62-1.138,0.032c-0.604-2.204-1.44-6.672-1.44-6.672
		c-0.027-0.553-0.503-0.917-1.056-0.923c-3.616-0.039-7.616-2.327-7.616-2.327c-0.518-0.105-0.983,0.311-0.879,0.787l1.503,4.032
		l-6.692-3.538c-0.637-0.333-1.445-0.194-1.906,0.328l-1.778,8.243c-0.155,0.594-1.009,0.579-1.14-0.021
		C1.168,7.323,5.485,3.493,15.768,3.493"/>
</g>
</svg>
