<?xml version="1.0" encoding="utf-8"?>
<!-- Generator: Adobe Illustrator 22.1.0, SVG Export Plug-In . SVG Version: 6.00 Build 0)  -->
<svg version="1.1" id="Layer_1" xmlns="http://www.w3.org/2000/svg" xmlns:xlink="http://www.w3.org/1999/xlink" x="0px" y="0px"
	 viewBox="0 0 141 143" enable-background="new 0 0 141 143" xml:space="preserve">
<g>
	<circle fill="#0071BD" cx="70.631" cy="71.4" r="67.562"/>
	<path fill="#FFFFFF" d="M115.257,45.397c-1.97,0.874-4.014,1.563-6.112,2.061c2.312-2.196,4.05-4.944,5.03-8.011
		c0.28-0.875-0.671-1.633-1.462-1.164c-2.919,1.732-6.062,3.029-9.344,3.86c-0.19,0.048-0.386,0.073-0.584,0.073
		c-0.598,0-1.179-0.222-1.637-0.625c-3.491-3.077-7.982-4.772-12.644-4.772c-2.018,0-4.054,0.314-6.054,0.935
		c-6.197,1.922-10.978,7.033-12.479,13.339c-0.562,2.365-0.714,4.733-0.452,7.037c0.029,0.265-0.095,0.45-0.172,0.536
		c-0.136,0.152-0.328,0.239-0.528,0.239c-0.022,0-0.045-0.001-0.068-0.003c-13.564-1.261-25.796-7.795-34.442-18.401
		c-0.44-0.541-1.286-0.475-1.638,0.128c-1.693,2.905-2.587,6.227-2.587,9.608c0,5.18,2.082,10.063,5.697,13.623
		c-1.521-0.361-2.993-0.929-4.359-1.688c-0.662-0.367-1.475,0.106-1.485,0.862c-0.094,7.696,4.412,14.545,11.163,17.628
		c-0.136,0.003-0.272,0.004-0.408,0.004c-1.07,0-2.154-0.102-3.22-0.307c-0.745-0.141-1.371,0.565-1.14,1.286
		c2.192,6.841,8.081,11.883,15.129,13.027c-5.85,3.927-12.662,5.998-19.752,5.998l-2.21-0.001c-0.682,0-1.258,0.444-1.431,1.104
		c-0.171,0.649,0.143,1.335,0.725,1.673c7.989,4.65,17.102,7.106,26.357,7.106c8.101,0,15.679-1.607,22.524-4.778
		c6.275-2.906,11.819-7.061,16.48-12.349c4.342-4.926,7.737-10.612,10.091-16.901c2.244-5.994,3.43-12.391,3.43-18.497v-0.291
		c0-0.98,0.443-1.903,1.217-2.532c2.936-2.384,5.493-5.19,7.599-8.34C117.049,46.034,116.172,44.992,115.257,45.397L115.257,45.397z
		 M115.257,45.397"/>
</g>
</svg>
