<?xml version="1.0" encoding="utf-8"?>
<!-- Generator: Adobe Illustrator 22.1.0, SVG Export Plug-In . SVG Version: 6.00 Build 0)  -->
<svg version="1.1" id="Layer_1" xmlns="http://www.w3.org/2000/svg" xmlns:xlink="http://www.w3.org/1999/xlink" x="0px" y="0px"
	 viewBox="0 0 53 50" enable-background="new 0 0 53 50" xml:space="preserve">
<g>
	<path fill="none" stroke="#008DEC" stroke-width="2" stroke-linecap="round" stroke-linejoin="round" stroke-miterlimit="10" d="
		M37.573,19.922c0,6.688-4.879,15.599-10.898,15.599s-10.898-8.911-10.898-15.599"/>
	<path fill="none" stroke="#008DEC" stroke-width="2" stroke-linecap="round" stroke-linejoin="round" stroke-miterlimit="10" d="
		M14.076,19.53c6.663,0,10.828-6.24,10.828-6.24s5.83,6.24,14.992,6.24"/>
	<path fill="none" stroke="#008DEC" stroke-width="2" stroke-linecap="round" stroke-linejoin="round" stroke-miterlimit="10" d="
		M26.675,4.883C19.147-0.65,4.554,7.991,11.921,32.547c2.766,9.221-8.299,12.91-8.299,12.91s17.521,5.533,19.365-11.066"/>
	<path fill="none" stroke="#008DEC" stroke-width="2" stroke-linecap="round" stroke-linejoin="round" stroke-miterlimit="10" d="
		M26.675,4.883C34.203-0.65,48.796,7.991,41.43,32.547c-2.766,9.221,8.299,12.91,8.299,12.91S32.208,50.99,30.364,34.392"/>
</g>
</svg>
